<?xml version="1.0" encoding="UTF-8" standalone="no"?>
<!DOCTYPE svg PUBLIC "-//W3C//DTD SVG 1.1//EN" "http://www.w3.org/Graphics/SVG/1.1/DTD/svg11.dtd">
<svg width="100%" height="100%" viewBox="0 0 1360 710" version="1.1" xmlns="http://www.w3.org/2000/svg"
    xmlns:xlink="http://www.w3.org/1999/xlink" xml:space="preserve" xmlns:serif="http://www.serif.com/"
    style="fill-rule:evenodd;clip-rule:evenodd;stroke-linejoin:round;stroke-miterlimit:2;">
    <g transform="matrix(1,0,0,1,-27830,-20990)">
        <path
            d="M28885.2,21663C28885.2,21681.8 28866.7,21700 28840.4,21700C28807.9,21700 28795.2,21674.5 28795.2,21652.2C28795.2,21628.8 28811.2,21606.7 28841.3,21606.7C28867.2,21606.7 28883.8,21624.2 28885.3,21643.6L28872.8,21643.5C28872.8,21643.5 28872.3,21642.2 28872.1,21641.5C28868.8,21626.7 28855.9,21617.8 28841.1,21617.8C28820.1,21617.8 28808.1,21633.7 28808.1,21652.9C28808.1,21673.1 28819.6,21688.8 28840.7,21688.8C28857.6,21688.8 28868.1,21680.3 28872.2,21664.9L28872.7,21663.1L28885.2,21663ZM28732.1,21641.7L28719.7,21641.7C28716.3,21629.4 28709.2,21618.1 28688.9,21618.1C28673,21618.1 28655.7,21630 28655.7,21653.1C28655.7,21672.5 28663.1,21688.8 28687.5,21688.8C28701.1,21688.8 28714.2,21678.1 28717.1,21667C28717.4,21666 28717.6,21664.9 28717.8,21663.3L28687.8,21663.3L28687.8,21652.6L28732.3,21652.6L28732.3,21698.5L28721,21698.5L28721,21680.5C28717.6,21687.6 28705.8,21700 28688.5,21700C28660.3,21700 28642.7,21684.8 28642.7,21653.5C28642.7,21628.1 28661.8,21607 28687.5,21607C28716.8,21607 28729.6,21625.2 28732.1,21641.7ZM28992,21617.8C28984,21610.7 28972.9,21606.7 28960.9,21606.7C28960.8,21606.7 28960.7,21606.8 28960.6,21606.8C28960.5,21606.8 28960.4,21606.7 28960.3,21606.7C28948.4,21606.7 28937.2,21610.7 28929.2,21617.8C28920.5,21625.5 28914.8,21639.1 28914.8,21653.6C28914.8,21671.2 28923.4,21683.1 28927.5,21687.1C28933.7,21693.2 28944.6,21699.9 28960.6,21699.9C28976.6,21699.9 28987.5,21693.2 28993.7,21687.1C28997.8,21683.1 29006.4,21671.2 29006.4,21653.6C29006.4,21639.1 29000.7,21625.5 28992,21617.8ZM29036.2,21693.1C29036.3,21697.4 29033.6,21699.9 29029,21699.9C29024.6,21699.9 29021.9,21697.4 29021.9,21693.3C29021.8,21689 29024.5,21686.5 29029.1,21686.5C29033.7,21686.5 29036.2,21688.9 29036.2,21693.1ZM28529.7,21608.3L28529.7,21698.6L28542.1,21698.6L28542.1,21622.4L28591.5,21698.6L28609.5,21698.6L28609.5,21608.4L28597.3,21608.4L28597.3,21684.4L28548.2,21608.3L28529.7,21608.3ZM28207.6,21687.7L28263.7,21687.7L28263.7,21698.6L28195.5,21698.6L28195.5,21608.3L28263.7,21608.3L28263.7,21618.8L28207.6,21618.8L28207.6,21643.8C28207.6,21645.7 28208.4,21646.7 28210.6,21646.6L28255.9,21646.6L28255.9,21657.5L28210.4,21657.5C28208.3,21657.4 28207.5,21657.9 28207.6,21660.2L28207.6,21687.7ZM28102,21698.6L28089.7,21698.6L28089.7,21608.4L28130.5,21608.4C28149.8,21608.4 28158,21620.4 28159.8,21630.2C28162.1,21642.4 28157.6,21653.8 28147.8,21659.6C28146.2,21660.5 28144.4,21661.2 28142.3,21662.2C28149.9,21674.2 28157.4,21686.1 28165.2,21698.6L28151.2,21698.6C28144.8,21688.6 28137.1,21676.7 28130.8,21666.6C28129.8,21665.1 28128.8,21664.4 28126.9,21664.4C28118.7,21664.5 28110.5,21664.5 28102,21664.5L28102,21698.6ZM27983.8,21608.2C27983.8,21608.2 28012.2,21608.4 28026.2,21608.4C28048.7,21608.4 28053.4,21622.3 28053.4,21630.6C28053.4,21631.9 28053.4,21633.2 28053.4,21634.6C28053,21642.2 28048.5,21647.2 28041.8,21650.3L28040.1,21651.2L28042.1,21651.8C28053.1,21655.2 28058.5,21662.5 28058.4,21673.4C28058.4,21693.2 28040.8,21698.6 28025.8,21698.6L27983.8,21698.6L27983.8,21696C27983.8,21667.5 27983.8,21639.1 27983.8,21610.6L27983.8,21608.2ZM28400.3,21608.3L28379.8,21684.3L28359.7,21608.3L28341.7,21608.3L28321.6,21684.3L28301.1,21608.3L28288.3,21608.3L28312.5,21698.5L28330.6,21698.5L28350.7,21622.9L28370.8,21698.5L28388.9,21698.5L28413,21608.3L28400.3,21608.3ZM28461.8,21619L28438.1,21619L28438.1,21608.4L28498.3,21608.4L28498.3,21618.8L28474.4,21618.8L28474.4,21687.6L28498.3,21687.6L28498.3,21698.5L28438.1,21698.5L28438.1,21687.8L28461.8,21687.8L28461.8,21619ZM28960.6,21688.8L28960.6,21688.8L28960.6,21688.8C28935.5,21688.8 28927.7,21668.5 28927.7,21652.5C28927.7,21628.9 28944,21617.8 28960.6,21617.8L28960.6,21617.8C28977.2,21617.8 28993.5,21628.9 28993.5,21652.5C28993.5,21668.5 28985.7,21688.8 28960.6,21688.8ZM27996.2,21687.6L28027.9,21687.5C28038.2,21687.5 28045.3,21682.6 28045.3,21673.9C28045.3,21663.4 28038.3,21658 28027.4,21658L27996.2,21658L27996.2,21687.6ZM28101.9,21653.4C28111.5,21653.4 28120.6,21653.3 28129.7,21653.3C28142.3,21653.3 28147.5,21646 28147.5,21637.3C28147.5,21626.1 28140.2,21618.9 28126.2,21618.9L28104.7,21618.9C28102.3,21618.8 28101.9,21619.7 28101.9,21621.9L28101.9,21653.4ZM27996.2,21646.8C27996.2,21646.8 28017.8,21647.4 28028.4,21646.7C28036.8,21646.1 28040.8,21640.8 28040.7,21632.9C28040.6,21625 28036.7,21619 28025.1,21619C28015.8,21619 27996.2,21619 27996.2,21619L27996.2,21646.8ZM28659.5,21441L28644.7,21441C28644.7,21441 28644.1,21439.7 28643.7,21438.9C28637.6,21426 28628,21417.1 28613.9,21413.9C28596.3,21410 28580.3,21413.2 28567.5,21426.8C28558.5,21436.3 28555.3,21448.2 28555.5,21461.1C28555.6,21471 28557.9,21480.3 28563.5,21488.6C28571.2,21500.2 28582.3,21506.3 28595.9,21507.8C28608.5,21509.1 28620.2,21506.6 28630.3,21498.5C28637.3,21492.9 28642.2,21485.7 28645.3,21477.2L28660.4,21477.2C28660.4,21477.5 28660.2,21477.9 28660.1,21478.2C28653.9,21495.9 28643.5,21510.1 28625.8,21517.6C28592.6,21531.5 28547.6,21515.6 28541.1,21470.4C28538.2,21450.2 28542.6,21431.8 28556.9,21416.7C28569.4,21403.3 28585.2,21397.9 28603.3,21398.2C28621.3,21398.5 28636.5,21404.9 28648.1,21419C28652.9,21424.8 28656.5,21431.3 28658.8,21438.4C28659.1,21439.1 28659.2,21439.9 28659.5,21441ZM28286.6,21519L28286.6,21401.5C28286.6,21401.5 28314.4,21401.2 28327.5,21401.6C28344.1,21402 28358.8,21407.7 28370.5,21419.8C28382.8,21432.7 28387.7,21448.2 28386.3,21465.7C28383.9,21494.6 28361.6,21516.2 28332.3,21518.5C28320.3,21519.5 28296,21519 28296,21519L28286.6,21519ZM28705.6,21401.5L28719.3,21401.5C28731.3,21401.5 28743.3,21401.5 28755.2,21401.5C28764.9,21401.5 28774.2,21403.1 28782.4,21408.5C28794.8,21416.5 28799.8,21428.2 28798.4,21442.6C28797,21456 28789.4,21465.1 28777.3,21470.5C28774.3,21471.9 28771.1,21472.7 28767.8,21473.9C28777.7,21488.8 28787.6,21503.7 28797.8,21519L28780.5,21519C28780.5,21519 28760.5,21488.9 28752.9,21477.3C28752,21475.9 28751.1,21475.3 28749.4,21475.3L28720.5,21475.3L28720.5,21518.9L28705.6,21518.9L28705.6,21401.5ZM28146.6,21401.5L28160.3,21401.5C28172.3,21401.5 28184.3,21401.5 28196.3,21401.5C28205.9,21401.5 28215.2,21403.1 28223.4,21408.5C28235.8,21416.5 28240.9,21428.2 28239.4,21442.6C28238,21456 28230.4,21465.1 28218.3,21470.5C28215.3,21471.9 28212.2,21472.7 28208.8,21473.9C28218.7,21488.8 28228.7,21503.7 28238.9,21519L28221.5,21519C28221.5,21519 28201.5,21488.9 28193.9,21477.3C28193,21475.9 28192.1,21475.3 28190.4,21475.3L28161.6,21475.3L28161.6,21518.9L28146.6,21518.9L28146.6,21401.5ZM29149.8,21519L29134.7,21519L29134.7,21415.9L29094.5,21415.9L29094.5,21401.6L29190,21401.6L29190,21415.7L29149.8,21415.7L29149.8,21519ZM28859.8,21484.7C28856.7,21496.1 28853.6,21507.5 28850.5,21518.9L28835.4,21518.9C28845.5,21479.8 28855.6,21440.7 28865.6,21401.6L28911.9,21401.6C28922,21440.6 28932,21479.6 28942.1,21518.9L28927,21518.9C28923.9,21507.5 28920.9,21496.1 28917.8,21484.7L28859.8,21484.7ZM28104.8,21518.9L28089.7,21518.9C28086.9,21508.3 28083.9,21497.8 28081.2,21487.2C28080.7,21485.1 28079.9,21484.5 28077.8,21484.5C28060.2,21484.6 28042.7,21484.6 28025.1,21484.6L28022.5,21484.6C28019.4,21496 28016.4,21507.4 28013.3,21518.9L27998.2,21518.9C28008.2,21479.8 28018.3,21440.7 28028.4,21401.6L28074.6,21401.6C28084.7,21440.6 28094.7,21479.7 28104.8,21518.9ZM27934,21401.4C27932.4,21401.4 27931.7,21402.1 27931.1,21403.4C27920.1,21427 27909,21450.7 27898,21474.3C27897.1,21476.4 27895.4,21477.2 27893.1,21477.2C27890.8,21477.2 27889.1,21476.4 27888.2,21474.3C27877.2,21450.7 27866.1,21427 27855.1,21403.4C27854.5,21402.1 27853.9,21401.4 27852.2,21401.4L27830,21401.5L27830,21518.9L27845,21518.9L27845,21416.6L27878.4,21488.4C27879.2,21490.1 27880.1,21490.6 27881.9,21490.6C27885.6,21490.5 27889.2,21490.6 27892.9,21490.6L27893.3,21490.6C27897,21490.6 27900.7,21490.5 27904.3,21490.6C27906.1,21490.6 27907,21490.1 27907.8,21488.4L27941.2,21416.6L27941.2,21518.9L27956.2,21518.9L27956.2,21401.5L27934,21401.4ZM28447.1,21401.6L28432.4,21401.6L28432.4,21518.9L28447.1,21518.9L28447.1,21401.6ZM28983.9,21401.5L29063.4,21401.5L29063.4,21415.7L28999,21415.7L28999,21456L29049.9,21456L29049.9,21470.3L28998.9,21470.3L28998.9,21518.9L28983.9,21518.9L28983.9,21401.5ZM28301.7,21505.1C28312.8,21504.7 28323.7,21505 28334.4,21503.9C28345.8,21502.6 28355.5,21497.1 28362.6,21487.8C28369.5,21478.7 28371.8,21468.3 28371.2,21457.1C28370,21433.7 28353.1,21417.4 28329.5,21416C28320.8,21415.5 28312.1,21415.8 28303.3,21415.8C28302.8,21415.8 28302.3,21415.9 28301.7,21416L28301.7,21505.1ZM28076.9,21470.2C28076.9,21469.8 28076.9,21469.6 28076.9,21469.5C28072.4,21452.1 28067.8,21434.8 28063.3,21417.4C28063,21416.1 28062.4,21415.7 28061.1,21415.8C28054.7,21415.8 28048.3,21415.8 28041.9,21415.7C28040.4,21415.7 28039.9,21416.4 28039.6,21417.7C28035.3,21434.5 28030.8,21451.3 28026.5,21468.1C28026.3,21468.8 28026.2,21469.4 28026,21470.2L28076.9,21470.2ZM28914.1,21470.2C28914.1,21469.7 28914.2,21469.5 28914.1,21469.3C28909.6,21452 28905.1,21434.7 28900.6,21417.5C28900.2,21416 28899.5,21415.7 28898.1,21415.8C28891.9,21415.8 28885.7,21415.9 28879.5,21415.7C28877.8,21415.7 28877.2,21416.3 28876.8,21417.8C28873.5,21430.8 28870.1,21443.8 28866.7,21456.8C28865.5,21461.2 28864.4,21465.6 28863.2,21470.2L28914.1,21470.2ZM28161.7,21460.9C28162.1,21461 28162.4,21461.1 28162.7,21461.1C28174.9,21461.1 28187.1,21461.2 28199.3,21461C28204,21460.9 28208.7,21460 28213,21457.8C28227.1,21450.9 28228.8,21429.9 28216.1,21420.8C28211.2,21417.4 28205.6,21416 28199.8,21415.9C28187.6,21415.8 28175.4,21415.8 28163.2,21415.8C28162.7,21415.8 28162.2,21416 28161.7,21416.1L28161.7,21460.9ZM28720.6,21460.9C28721,21461 28721.3,21461.1 28721.6,21461.1C28733.8,21461.1 28746,21461.2 28758.2,21461C28763,21460.9 28767.6,21460 28772,21457.8C28786,21450.9 28787.8,21429.9 28775,21420.8C28770.2,21417.4 28764.6,21416 28758.7,21415.9C28746.5,21415.8 28734.3,21415.8 28722.1,21415.8C28721.6,21415.8 28721.1,21416 28720.6,21416.1L28720.6,21460.9ZM28166.4,20990L28166.4,21004.4C28225.7,21004.4 28273.7,21052.4 28273.7,21111.6L28273.7,21223.7L28288.1,21223.7L28288.1,21111.6C28288.1,21052.4 28336.2,21004.4 28395.5,21004.4C28454.7,21004.4 28502.8,21052.4 28502.8,21111.6L28502.8,21223.7L28517.2,21223.7L28517.2,21111.6C28517.2,21052.4 28565.2,21004.4 28624.5,21004.4C28683.8,21004.4 28731.9,21052.4 28731.9,21111.6L28731.9,21223.7L28746.3,21223.7L28746.3,21111.6C28746.3,21052.4 28794.3,21004.4 28853.6,21004.4L28853.6,20990L28166.4,20990Z"
            style="fill:rgb(227,211,205);fill-rule:nonzero;" />
    </g>
</svg>
